<svg width="127" height="32" viewBox="0 0 127 32" fill="none" xmlns="http://www.w3.org/2000/svg">
<path fill-rule="evenodd" clip-rule="evenodd" d="M54.2365 5.08862H46.0923V25.8553H50.9732V20.6494H54.2086C55.4172 20.6494 56.5096 20.436 57.4858 20.0093C58.4619 19.5826 59.2894 19.0137 59.9681 18.3025C60.6467 17.5913 61.172 16.7616 61.5439 15.8133C61.9158 14.8651 62.1017 13.8694 62.1017 12.8263C62.1017 11.7643 61.9158 10.7639 61.5439 9.82513C61.172 8.88636 60.6421 8.06612 59.9541 7.36442C59.2661 6.66272 58.4387 6.10799 57.4718 5.70024C56.5049 5.2925 55.4265 5.08862 54.2365 5.08862ZM50.9732 9.58332H53.9854C54.8965 9.58332 55.6543 9.88202 56.2586 10.4794C56.8629 11.0768 57.165 11.8591 57.165 12.8263C57.165 13.7935 56.8629 14.5711 56.2586 15.159C55.6543 15.7469 54.8965 16.0409 53.9854 16.0409H50.9732V9.58332ZM70.3203 26.1397C71.5103 26.1397 72.598 25.9311 73.5835 25.5139C74.569 25.0967 75.4197 24.5277 76.1355 23.8071C76.8514 23.0864 77.4092 22.2424 77.809 21.2752C78.2088 20.308 78.4087 19.2744 78.4087 18.1745C78.4087 17.0745 78.2041 16.0409 77.7951 15.0737C77.386 14.1065 76.8189 13.2578 76.0937 12.5276C75.3685 11.7975 74.5132 11.2238 73.5277 10.8066C72.5423 10.3893 71.4731 10.1807 70.3203 10.1807C69.1488 10.1807 68.0657 10.3893 67.071 10.8066C66.0762 11.2238 65.2255 11.7975 64.5189 12.5276C63.8124 13.2578 63.2592 14.1065 62.8594 15.0737C62.4597 16.0409 62.2598 17.0745 62.2598 18.1745C62.2598 19.2744 62.4597 20.308 62.8594 21.2752C63.2592 22.2424 63.8124 23.0864 64.5189 23.8071C65.2255 24.5277 66.0762 25.0967 67.071 25.5139C68.0657 25.9311 69.1488 26.1397 70.3203 26.1397ZM66.9455 18.146C66.9455 17.6529 67.0338 17.1978 67.2104 16.7805C67.3871 16.3633 67.6288 15.9982 67.9356 15.6853C68.2424 15.3724 68.605 15.1258 69.0233 14.9457C69.4417 14.7655 69.8833 14.6754 70.3482 14.6754C70.813 14.6754 71.2546 14.7655 71.673 14.9457C72.0914 15.1258 72.4539 15.3724 72.7607 15.6853C73.0675 15.9982 73.3093 16.3633 73.4859 16.7805C73.6625 17.1978 73.7509 17.6529 73.7509 18.146C73.7509 18.6201 73.6625 19.0706 73.4859 19.4973C73.3093 19.924 73.0675 20.2938 72.7607 20.6067C72.4539 20.9196 72.0914 21.1662 71.673 21.3463C71.2546 21.5265 70.813 21.6166 70.3482 21.6166C69.8833 21.6166 69.4417 21.5265 69.0233 21.3463C68.605 21.1662 68.2424 20.9196 67.9356 20.6067C67.6288 20.2938 67.3871 19.924 67.2104 19.4973C67.0338 19.0706 66.9455 18.6201 66.9455 18.146ZM88.5238 26.1682C89.3977 26.1682 90.253 25.9833 91.0898 25.6135C91.9265 25.2437 92.6656 24.7174 93.3071 24.0346C93.9486 23.3519 94.4646 22.5174 94.8551 21.5313C95.2455 20.5451 95.4408 19.4261 95.4408 18.1745C95.4408 16.9417 95.2455 15.8323 94.8551 14.8461C94.4646 13.8599 93.9486 13.0207 93.3071 12.3285C92.6656 11.6363 91.9265 11.1053 91.0898 10.7354C90.253 10.3656 89.3791 10.1807 88.468 10.1807C87.4639 10.1807 86.6086 10.3799 85.902 10.7781C85.1955 11.1764 84.6284 11.7169 84.2007 12.3996V10.4936H79.5429V31.9999H84.2286V24.1769C85.1397 25.5044 86.5714 26.1682 88.5238 26.1682ZM83.9776 18.146C83.9776 17.6529 84.0659 17.1978 84.2425 16.7805C84.4192 16.3633 84.6609 15.9982 84.9677 15.6853C85.2745 15.3724 85.6371 15.1258 86.0554 14.9457C86.4738 14.7655 86.9154 14.6754 87.3803 14.6754C87.8451 14.6754 88.2867 14.7655 88.7051 14.9457C89.1235 15.1258 89.486 15.3724 89.7928 15.6853C90.0996 15.9982 90.3414 16.3633 90.518 16.7805C90.6947 17.1978 90.783 17.6529 90.783 18.146C90.783 18.6201 90.6947 19.0706 90.518 19.4973C90.3414 19.924 90.0996 20.2938 89.7928 20.6067C89.486 20.9196 89.1235 21.1662 88.7051 21.3463C88.2867 21.5265 87.8451 21.6166 87.3803 21.6166C86.9154 21.6166 86.4738 21.5265 86.0554 21.3463C85.6371 21.1662 85.2745 20.9196 84.9677 20.6067C84.6609 20.2938 84.4192 19.924 84.2425 19.4973C84.0659 19.0706 83.9776 18.6201 83.9776 18.146ZM103.129 26.1682C104.282 26.1682 105.286 26.0165 106.142 25.713C106.997 25.4096 107.704 25.0066 108.261 24.504C108.819 24.0014 109.238 23.4372 109.516 22.8114C109.795 22.1855 109.935 21.5502 109.935 20.9054C109.935 20.052 109.763 19.3455 109.419 18.7861C109.075 18.2266 108.629 17.7715 108.08 17.4206C107.532 17.0697 106.927 16.7995 106.267 16.6098C105.607 16.4202 104.961 16.259 104.329 16.1262C103.269 15.9176 102.474 15.728 101.944 15.5573C101.414 15.3866 101.149 15.1211 101.149 14.7608C101.149 14.4384 101.289 14.1871 101.567 14.0069C101.846 13.8267 102.274 13.7367 102.85 13.7367C104.022 13.7367 104.84 14.2203 105.305 15.1875L109.767 13.7935C109.396 13.2246 108.991 12.7125 108.554 12.2574C108.117 11.8022 107.624 11.4182 107.076 11.1053C106.527 10.7923 105.909 10.5505 105.221 10.3799C104.533 10.2092 103.752 10.1238 102.878 10.1238C101.911 10.1238 101.028 10.2518 100.229 10.5079C99.4292 10.7639 98.7412 11.1195 98.1648 11.5746C97.5884 12.0298 97.1421 12.5656 96.826 13.1819C96.5099 13.7983 96.3519 14.4478 96.3519 15.1306C96.3519 15.965 96.5146 16.6525 96.84 17.193C97.1654 17.7335 97.593 18.1745 98.123 18.5158C98.6529 18.8572 99.2432 19.118 99.894 19.2981C100.545 19.4783 101.186 19.6348 101.819 19.7675C102.748 19.9572 103.52 20.1373 104.133 20.308C104.747 20.4787 105.054 20.7821 105.054 21.2183C105.054 21.5407 104.9 21.8205 104.594 22.0575C104.287 22.2946 103.836 22.4131 103.241 22.4131C102.59 22.4131 102.004 22.2614 101.484 21.958C100.963 21.6545 100.601 21.1899 100.396 20.564L95.6825 21.9295C96.2403 23.295 97.1235 24.3428 98.3321 25.073C99.5408 25.8031 101.14 26.1682 103.129 26.1682ZM117.568 10.1807C116.657 10.1807 115.778 10.3656 114.932 10.7354C114.086 11.1053 113.342 11.6363 112.701 12.3285C112.059 13.0207 111.543 13.8599 111.153 14.8461C110.762 15.8323 110.567 16.9417 110.567 18.1745C110.567 19.4261 110.762 20.5451 111.153 21.5313C111.543 22.5174 112.064 23.3519 112.715 24.0346C113.365 24.7174 114.109 25.2437 114.946 25.6135C115.783 25.9833 116.638 26.1682 117.512 26.1682C118.46 26.1682 119.297 25.988 120.022 25.6277C120.747 25.2674 121.342 24.7553 121.807 24.0915V25.8553H126.465V10.4936H121.807V12.2574C121.361 11.6126 120.784 11.1053 120.078 10.7354C119.371 10.3656 118.535 10.1807 117.568 10.1807ZM122.03 18.146C122.03 18.6201 121.942 19.0706 121.765 19.4973C121.589 19.924 121.347 20.2938 121.04 20.6067C120.733 20.9196 120.371 21.1662 119.952 21.3463C119.534 21.5265 119.092 21.6166 118.627 21.6166C118.163 21.6166 117.721 21.5265 117.303 21.3463C116.884 21.1662 116.522 20.9196 116.215 20.6067C115.908 20.2938 115.666 19.924 115.49 19.4973C115.313 19.0706 115.225 18.6201 115.225 18.146C115.225 17.6529 115.313 17.1978 115.49 16.7805C115.666 16.3633 115.908 15.9982 116.215 15.6853C116.522 15.3724 116.884 15.1258 117.303 14.9457C117.721 14.7655 118.163 14.6754 118.627 14.6754C119.092 14.6754 119.534 14.7655 119.952 14.9457C120.371 15.1258 120.733 15.3724 121.04 15.6853C121.347 15.9982 121.589 16.3633 121.765 16.7805C121.942 17.1978 122.03 17.6529 122.03 18.146Z" fill="#585858"/>
<path d="M9.08764 6.36809C11.0871 7.65541 13.456 8.40248 16.0004 8.40248C18.5436 8.40248 20.9137 7.65541 22.9143 6.36809C24.7406 5.14001 26.4113 3.35193 26.4113 1.5987C26.4113 0.94342 26.0291 0 25.066 0C24.4222 0 23.8683 0.359919 23.1523 0.825147C22.947 0.958603 22.7282 1.10072 22.4902 1.2455C20.5907 2.37482 18.3705 3.02313 16.0015 3.02313C13.6315 3.02313 11.4124 2.37482 9.5117 1.2455C9.27485 1.10117 9.05715 0.959583 8.85273 0.826625C8.1356 0.360219 7.58175 0 6.93714 0C5.97284 0 5.59061 0.944582 5.59061 1.5987C5.59061 3.35193 7.26128 5.13885 9.08764 6.36809Z" fill="#FF015C"/>
<path d="M9.08764 25.6315C11.0871 24.3442 13.456 23.5971 16.0004 23.5971C18.5436 23.5971 20.9137 24.3442 22.9143 25.6315C24.7406 26.8596 26.4113 28.6477 26.4113 30.4009C26.4113 31.0562 26.0291 31.9996 25.066 31.9996C24.4222 31.9996 23.8683 31.6397 23.1523 31.1745C22.9471 31.0411 22.7281 30.8988 22.4902 30.7541C20.5907 29.6248 18.3705 28.9765 16.0015 28.9765C13.6315 28.9765 11.4124 29.6248 9.5117 30.7541C9.27485 30.8984 9.05715 31.04 8.85273 31.173C8.1356 31.6394 7.58175 31.9996 6.93714 31.9996C5.97284 31.9996 5.59061 31.055 5.59061 30.4009C5.59061 28.6477 7.26128 26.8608 9.08764 25.6315Z" fill="#FF015C"/>
<path d="M23.5974 15.9998C23.5974 13.4554 24.3445 11.0864 25.6318 9.08565C26.8609 7.25922 28.6478 5.58849 30.401 5.58849C31.0551 5.58849 31.9996 5.97074 31.9996 6.93507C31.9996 7.57928 31.6399 8.13285 31.1739 8.84987C31.0407 9.05487 30.8988 9.27323 30.7541 9.51089C29.6249 11.4105 28.9766 13.6308 28.9766 16.001C28.9766 18.37 29.6249 20.5903 30.7541 22.4899C30.8989 22.7279 31.041 22.9466 31.1745 23.152C31.6397 23.868 31.9996 24.422 31.9996 25.0657C31.9996 26.0289 31.0562 26.4111 30.401 26.4111C28.6478 26.4111 26.8598 24.7404 25.6318 22.914C24.3433 20.9133 23.5974 18.5443 23.5974 15.9998Z" fill="#FF015C"/>
<path d="M6.36786 9.08565C7.65514 11.0864 8.40218 13.4554 8.40218 15.9998C8.40218 18.5443 7.6563 20.9133 6.36786 22.914C5.13983 24.7404 3.35181 26.4111 1.59864 26.4111C0.944548 26.4111 0 26.0289 0 25.0657C0 24.422 0.359905 23.868 0.825117 23.152C0.958567 22.9466 1.10068 22.7279 1.24546 22.4899C2.37473 20.5903 3.02302 18.37 3.02302 16.001C3.02302 13.6308 2.37473 11.4105 1.24546 9.51089C1.1008 9.27323 0.958897 9.05486 0.825679 8.84986C0.359734 8.13285 0 7.57928 0 6.93507C0 5.97074 0.944548 5.58849 1.59864 5.58849C3.35181 5.58849 5.13867 7.25922 6.36786 9.08565Z" fill="#FF015C"/>
</svg>
